<?xml version="1.0"?>
<svg xmlns="http://www.w3.org/2000/svg" viewBox="0 0 32 32">
    <path style="text-indent:0;text-align:start;line-height:normal;text-transform:none;block-progression:tb;-inkscape-font-specification:Sans" d="M 18 4 L 18 5 L 18 13 L 9.6875 13 C 9.4560231 12.458197 9.0915756 11.732388 8.46875 10.90625 C 7.4122229 9.5048346 5.6041083 8 3 8 L 3 10 C 4.8568917 10 6.0467771 10.995165 6.875 12.09375 C 7.664377 13.140808 7.9703116 14.123658 8 14.21875 C 8.0837646 17.61003 10.080415 20.538739 12.9375 22 C 11.321526 22.03463 10 23.376398 10 25 C 10 26.64501 11.35499 28 13 28 C 14.64501 28 16 26.64501 16 25 C 16 24.114598 15.619018 23.301311 15 22.75 C 15.645088 22.898467 16.311895 23 17 23 L 20 23 C 20.688105 23 21.354912 22.898467 22 22.75 C 21.380982 23.301311 21 24.114598 21 25 C 21 26.64501 22.35499 28 24 28 C 25.64501 28 27 26.64501 27 25 C 27 23.376398 25.678474 22.03463 24.0625 22 C 26.695555 20.653319 28.590806 18.05498 28.9375 15 C 28.970521 14.709027 28.995788 14.423402 29 14.125 C 29.0003 14.103776 28.99985 14.083758 29 14.0625 C 29 14.0625 29.006615 13.897789 29 13.625 L 29 13 L 28.9375 13 C 28.864539 12.044366 28.664694 10.594869 27.9375 9.0625 C 26.747173 6.5542006 24.046192 4 19 4 L 18 4 z M 20 6.125 C 23.61513 6.4224921 25.29421 8.12098 26.15625 9.9375 C 26.746688 11.181692 26.879873 12.230484 26.9375 13 L 20 13 L 20 6.125 z M 10.21875 15 L 18 15 L 26.78125 15 C 26.273649 18.361815 23.499271 21 20 21 L 17 21 C 13.500729 21 10.726351 18.361815 10.21875 15 z M 13 24 C 13.564128 24 14 24.435872 14 25 C 14 25.564128 13.564128 26 13 26 C 12.435872 26 12 25.564128 12 25 C 12 24.435872 12.435872 24 13 24 z M 24 24 C 24.564128 24 25 24.435872 25 25 C 25 25.564128 24.564128 26 24 26 C 23.435872 26 23 25.564128 23 25 C 23 24.435872 23.435872 24 24 24 z" overflow="visible" font-family="Sans"/>
</svg>
